<svg width="18" height="18" viewBox="0 0 18 18" fill="none" xmlns="http://www.w3.org/2000/svg">
<path d="M8.74778 13.1673L12.8728 10.7857L8.74778 8.40415V9.86905H5.12699V11.7024H8.74778V13.1673Z" fill="#07232E"/>
<path d="M5.33333 4.41667C4.82707 4.41667 4.41667 4.82707 4.41667 5.33333C4.41667 5.83959 4.82707 6.25 5.33333 6.25H12.6667C13.1729 6.25 13.5833 5.83959 13.5833 5.33333C13.5833 4.82707 13.1729 4.41667 12.6667 4.41667H5.33333Z" fill="#07232E"/>
<path fill-rule="evenodd" clip-rule="evenodd" d="M3.5 0.75C1.98122 0.75 0.75 1.98122 0.75 3.5V14.5C0.75 16.0188 1.98122 17.25 3.5 17.25H14.5C16.0188 17.25 17.25 16.0188 17.25 14.5V3.5C17.25 1.98122 16.0188 0.75 14.5 0.75H3.5ZM14.5 2.58333H3.5C2.99374 2.58333 2.58333 2.99374 2.58333 3.5V14.5C2.58333 15.0063 2.99374 15.4167 3.5 15.4167H14.5C15.0063 15.4167 15.4167 15.0063 15.4167 14.5V3.5C15.4167 2.99374 15.0063 2.58333 14.5 2.58333Z" fill="#07232E"/>
</svg>
