<svg width="48" height="49" viewBox="0 0 48 49" fill="none" xmlns="http://www.w3.org/2000/svg">
<g clip-path="url(#clip0_8_368)">
<path d="M9.53922 12.2253C9.14764 12.4209 8.68713 12.1361 8.68713 11.6984V7.4087C8.68713 7.19973 8.79784 7.00642 8.97808 6.90069L19.0025 1.02029C19.3951 0.789975 19.8895 1.0731 19.8895 1.52829V6.69233C19.8895 6.91552 19.7633 7.11953 19.5636 7.21924L9.53922 12.2253Z" fill="white" fill-opacity="0.75"/>
<path d="M8.97809 12.2362C8.79786 12.1305 8.68713 11.9372 8.68713 11.7282V7.49222C8.68713 7.04198 9.17185 6.75823 9.56444 6.97868L25.3166 15.8235C25.5023 15.9277 25.6173 16.1242 25.6173 16.3371V20.9686C25.6173 21.4239 25.123 21.707 24.7303 21.4766L8.97809 12.2362Z" fill="white"/>
<path d="M39.0173 10.2607C39.1975 10.3665 39.3082 10.5598 39.3082 10.7687V15.0047C39.3082 15.4549 38.8235 15.7387 38.4308 15.5182L22.6786 6.67338C22.4929 6.56914 22.3781 6.37278 22.3781 6.15984V1.52829C22.3781 1.0731 22.8723 0.789975 23.265 1.02029L39.0173 10.2607Z" fill="white" fill-opacity="0.75"/>
<path d="M38.4559 10.2716C38.8476 10.0761 39.308 10.3608 39.308 10.7985V15.0882C39.308 15.2972 39.1972 15.4904 39.017 15.5963L28.9927 21.4766C28.6001 21.707 28.1057 21.4239 28.1057 20.9686V15.8046C28.1057 15.5814 28.2319 15.3773 28.4316 15.2777L38.4559 10.2716Z" fill="white"/>
<path d="M12.9841 34.3429C12.9841 34.9024 13.1203 35.3589 13.3927 35.7123C13.6725 36.0656 14.0553 36.2423 14.5412 36.2423C15.005 36.2423 15.3768 36.062 15.6565 35.7012C15.9363 35.3405 16.0762 34.8804 16.0762 34.3208C16.0762 33.7687 15.94 33.3233 15.6676 32.9847C15.3952 32.646 15.0234 32.4767 14.5522 32.4767C14.0811 32.4767 13.7019 32.6497 13.4148 32.9957C13.1277 33.3417 12.9841 33.7908 12.9841 34.3429ZM16.0872 36.2975V36.2092C15.9473 36.4816 15.7338 36.7098 15.4467 36.8939C15.167 37.0705 14.832 37.1589 14.4418 37.1589C13.6835 37.1589 13.0725 36.8939 12.6087 36.3638C12.1522 35.8264 11.924 35.1528 11.924 34.3429C11.924 33.5699 12.1596 32.9147 12.6307 32.3773C13.1019 31.8325 13.7056 31.5601 14.4418 31.5601C14.8762 31.5601 15.2295 31.6485 15.5019 31.8251C15.7743 31.9945 15.962 32.2043 16.0651 32.4546V29.0202H17.0921V36.0325C17.0921 36.3932 17.1105 36.7208 17.1473 37.0153H16.1424C16.1056 36.8092 16.0872 36.5699 16.0872 36.2975ZM19.5314 33.8129H22.4357C22.421 33.4153 22.2885 33.0914 22.0382 32.8411C21.7879 32.5834 21.4345 32.4546 20.978 32.4546C20.5658 32.4546 20.2271 32.5908 19.9621 32.8632C19.6971 33.1282 19.5535 33.4448 19.5314 33.8129ZM22.5903 35.1932L23.4848 35.5024C23.3302 35.9957 23.0431 36.4006 22.6234 36.7172C22.2038 37.0264 21.6958 37.181 21.0995 37.181C20.356 37.181 19.7228 36.927 19.2001 36.419C18.6848 35.9037 18.4271 35.2116 18.4271 34.3429C18.4271 33.5331 18.6774 32.8632 19.1781 32.3331C19.6787 31.8031 20.275 31.538 20.967 31.538C21.7695 31.538 22.3952 31.792 22.8443 32.3C23.2934 32.8006 23.5179 33.4742 23.5179 34.3208C23.5179 34.4534 23.5106 34.5638 23.4958 34.6521H19.4983C19.5057 35.1233 19.6603 35.5098 19.9621 35.8116C20.2713 36.1135 20.6504 36.2644 21.0995 36.2644C21.8578 36.2644 22.3547 35.9074 22.5903 35.1932ZM25.881 37.0153H24.8429V29.0202H25.881V37.0153ZM29.0382 30.0251V31.7037H30.1867V32.6423H29.0382V35.4031C29.0382 35.6534 29.0934 35.8374 29.2039 35.9552C29.3217 36.073 29.5131 36.1319 29.7781 36.1319C29.9327 36.1319 30.0689 36.1172 30.1867 36.0877V36.9712C30.01 37.0374 29.7744 37.0705 29.4799 37.0705C29.0235 37.0705 28.6628 36.938 28.3977 36.673C28.1327 36.408 28.0002 36.0362 28.0002 35.5577V32.6423H26.9842V31.7037H27.2713C27.5437 31.7037 27.7462 31.6301 27.8787 31.4828C28.0186 31.3282 28.0885 31.1294 28.0885 30.8865V30.0251H29.0382ZM31.2409 35.5908C31.2409 35.1343 31.3882 34.7699 31.6826 34.4975C31.9771 34.2178 32.3673 34.0448 32.8532 33.9785L34.2888 33.7687C34.5612 33.7319 34.6974 33.5994 34.6974 33.3712C34.6974 33.0914 34.6017 32.8632 34.4102 32.6865C34.2188 32.5098 33.9317 32.4215 33.5489 32.4215C33.1955 32.4215 32.9158 32.5208 32.7096 32.7196C32.5035 32.911 32.382 33.1687 32.3452 33.4926L31.3514 33.2607C31.4029 32.7527 31.6348 32.3405 32.0471 32.0239C32.4593 31.7 32.9526 31.538 33.5268 31.538C34.2777 31.538 34.8336 31.7221 35.1943 32.0902C35.555 32.4509 35.7354 32.9147 35.7354 33.4816V36.1429C35.7354 36.4595 35.7575 36.7503 35.8017 37.0153H34.7857C34.7489 36.7945 34.7305 36.5552 34.7305 36.2975C34.5833 36.5331 34.3661 36.7393 34.079 36.9159C33.7992 37.0926 33.4458 37.181 33.0188 37.181C32.4961 37.181 32.0691 37.0264 31.7379 36.7172C31.4066 36.4006 31.2409 36.0251 31.2409 35.5908ZM33.1624 36.3086C33.6262 36.3086 33.998 36.1834 34.2777 35.9331C34.5575 35.6828 34.6974 35.2853 34.6974 34.7405V34.4975L33.0741 34.7405C32.8385 34.7773 32.6507 34.862 32.5109 34.9945C32.371 35.127 32.301 35.3073 32.301 35.5356C32.301 35.7417 32.3783 35.9221 32.5329 36.0767C32.6949 36.2313 32.9047 36.3086 33.1624 36.3086ZM14.6516 42.9601C14.2393 42.9601 13.8896 43.111 13.6025 43.4129C13.3154 43.7074 13.1719 44.1123 13.1719 44.6276C13.1719 45.1503 13.3154 45.5626 13.6025 45.8644C13.897 46.1662 14.2541 46.3172 14.6737 46.3172C15.0492 46.3172 15.3473 46.2178 15.5682 46.019C15.7964 45.8129 15.9473 45.581 16.0209 45.3233L17.1473 45.7319C17.0001 46.2104 16.713 46.6227 16.286 46.9687C15.8663 47.3147 15.3289 47.4877 14.6737 47.4877C13.886 47.4877 13.2234 47.2153 12.686 46.6705C12.1559 46.1258 11.8909 45.4448 11.8909 44.6276C11.8909 43.8031 12.1522 43.1221 12.6749 42.5847C13.205 42.0472 13.8602 41.7785 14.6406 41.7785C15.3105 41.7785 15.8553 41.9515 16.2749 42.2975C16.7019 42.6435 16.978 43.0595 17.1032 43.5454L15.9547 43.965C15.8811 43.6853 15.7375 43.4497 15.524 43.2583C15.3179 43.0595 15.0271 42.9601 14.6516 42.9601ZM19.523 45.8865C19.8175 46.1883 20.1746 46.3393 20.5942 46.3393C21.0138 46.3393 21.3672 46.1883 21.6543 45.8865C21.9488 45.5847 22.096 45.165 22.096 44.6276C22.096 44.0975 21.9488 43.6853 21.6543 43.3908C21.3672 43.0889 21.0138 42.938 20.5942 42.938C20.1746 42.938 19.8175 43.0889 19.523 43.3908C19.2359 43.6853 19.0924 44.0975 19.0924 44.6276C19.0924 45.1577 19.2359 45.5773 19.523 45.8865ZM20.5942 41.7785C21.404 41.7785 22.0703 42.0472 22.593 42.5847C23.123 43.1221 23.3881 43.8031 23.3881 44.6276C23.3881 45.4521 23.123 46.1368 22.593 46.6816C22.0703 47.219 21.404 47.4877 20.5942 47.4877C19.7917 47.4877 19.1255 47.219 18.5954 46.6816C18.0727 46.1368 17.8114 45.4521 17.8114 44.6276C17.8114 43.8031 18.0727 43.1221 18.5954 42.5847C19.1255 42.0472 19.7917 41.7785 20.5942 41.7785ZM25.4873 44.6166C25.4873 45.1319 25.6198 45.5478 25.8848 45.8644C26.1498 46.1736 26.4995 46.3282 26.9339 46.3282C27.3535 46.3282 27.6958 46.1699 27.9609 45.8534C28.2259 45.5368 28.3584 45.1208 28.3584 44.6055C28.3584 44.0975 28.2296 43.6926 27.9719 43.3908C27.7142 43.0889 27.3719 42.938 26.9449 42.938C26.5179 42.938 26.1682 43.0926 25.8958 43.4018C25.6234 43.7037 25.4873 44.1086 25.4873 44.6166ZM29.5952 39.327V46.3393C29.5952 46.7 29.6136 47.0276 29.6504 47.3221H28.4247C28.3879 47.1159 28.3695 46.884 28.3695 46.6264C28.2369 46.8693 28.0308 47.0681 27.7511 47.2227C27.4713 47.3773 27.1511 47.4546 26.7903 47.4546C26.0247 47.4546 25.4026 47.1859 24.9241 46.6485C24.4455 46.111 24.2063 45.4337 24.2063 44.6166C24.2063 43.8288 24.4455 43.1626 24.9241 42.6178C25.41 42.073 26.0247 41.8006 26.7682 41.8006C27.1952 41.8006 27.5376 41.8779 27.7952 42.0325C28.0603 42.1871 28.2443 42.3675 28.3474 42.5736V39.327H29.5952ZM32.1635 44.0423H34.8028C34.7881 43.7037 34.6666 43.4202 34.4384 43.192C34.2175 42.9638 33.8973 42.8497 33.4776 42.8497C33.0948 42.8497 32.7856 42.9712 32.55 43.2141C32.3144 43.4497 32.1856 43.7258 32.1635 44.0423ZM34.9463 45.4448L36.0286 45.7871C35.874 46.2804 35.5832 46.6889 35.1562 47.0129C34.7365 47.3294 34.2175 47.4877 33.5991 47.4877C32.8335 47.4877 32.1819 47.2264 31.6445 46.7037C31.1144 46.181 30.8494 45.4816 30.8494 44.6055C30.8494 43.781 31.1071 43.1037 31.6224 42.5736C32.1451 42.0435 32.7598 41.7785 33.4666 41.7785C34.2911 41.7785 34.9353 42.0325 35.3991 42.5405C35.8629 43.0411 36.0948 43.7184 36.0948 44.5724C36.0948 44.8006 36.0838 44.9368 36.0617 44.981H32.1304C32.1451 45.3859 32.2924 45.7208 32.5721 45.9859C32.8592 46.2509 33.2016 46.3834 33.5991 46.3834C34.2911 46.3834 34.7402 46.0705 34.9463 45.4448Z" fill="white"/>
</g>
<defs>
<clipPath id="clip0_8_368">
<rect width="48" height="48" fill="white" transform="translate(0 0.5)"/>
</clipPath>
</defs>
</svg>
