<svg width="18" height="20" viewBox="0 0 18 20" fill="none" xmlns="http://www.w3.org/2000/svg">
<path d="M10.1 2V1.9H10H3C2.39249 1.9 1.9 2.39249 1.9 3V17C1.9 17.6075 2.39249 18.1 3 18.1H15C15.6075 18.1 16.1 17.6075 16.1 17V7V6.9H16H10.1V2ZM12.0199 2.00202L11.9 1.97768V2.10002V5V5.1H12H15.584H15.7368L15.6756 4.95996C15.0201 3.4597 13.6637 2.3357 12.0199 2.00202ZM13.9 14.1V15.9H4.1V14.1H13.9ZM13.9 11.9H4.1V10.1H13.9V11.9ZM7.9 6.1V7.9H4.1V6.1H7.9ZM0.1 3C0.1 1.39837 1.39837 0.1 3 0.1H11C14.8108 0.1 17.9 3.18924 17.9 7V17C17.9 18.6016 16.6016 19.9 15 19.9H3C1.39837 19.9 0.1 18.6016 0.1 17V3Z" fill="white" stroke="#00A385" stroke-width="0.2"/>
</svg>
