<svg width="19" height="15" viewBox="0 0 19 15" fill="none" xmlns="http://www.w3.org/2000/svg">
<path d="M17.5 0.5C18.0523 0.5 18.5 0.947715 18.5 1.5C18.5 2.05228 18.0523 2.5 17.5 2.5H1.5C0.947716 2.5 0.5 2.05228 0.5 1.5C0.5 0.947715 0.947716 0.5 1.5 0.5H17.5Z" fill="white"/>
<path d="M17.5 4.5C18.0523 4.5 18.5 4.94772 18.5 5.5C18.5 6.05228 18.0523 6.5 17.5 6.5H1.5C0.947716 6.5 0.5 6.05228 0.5 5.5C0.5 4.94772 0.947716 4.5 1.5 4.5H17.5Z" fill="white"/>
<path d="M18.5 9.5C18.5 8.94771 18.0523 8.5 17.5 8.5H1.5C0.947716 8.5 0.5 8.94771 0.5 9.5C0.5 10.0523 0.947716 10.5 1.5 10.5H17.5C18.0523 10.5 18.5 10.0523 18.5 9.5Z" fill="white"/>
<path d="M17.5 12.5C18.0523 12.5 18.5 12.9477 18.5 13.5C18.5 14.0523 18.0523 14.5 17.5 14.5H1.5C0.947716 14.5 0.5 14.0523 0.5 13.5C0.5 12.9477 0.947716 12.5 1.5 12.5H17.5Z" fill="white"/>
</svg>
