<svg width="23" height="16" viewBox="0 0 23 16" fill="none" xmlns="http://www.w3.org/2000/svg">
<path d="M8.05547 11.9168L8.03028 11.9H8H4C1.84609 11.9 0.1 10.1539 0.1 8C0.1 5.84609 1.84609 4.1 4 4.1H8H8.03028L8.05547 4.08321L13.9 0.186852V15.8131L8.05547 11.9168ZM12.1 3.5V3.31958L11.947 3.4152L7.97132 5.9H4C2.8402 5.9 1.9 6.8402 1.9 8C1.9 9.1598 2.8402 10.1 4 10.1H7.97132L11.947 12.5848L12.1 12.6804V12.5V3.5ZM22.9 8C22.9 12.3297 19.417 15.8458 15.1 15.8994V14.0992C18.4228 14.0458 21.1 11.3355 21.1 8C21.1 4.66446 18.4228 1.95421 15.1 1.9008V0.10062C19.417 0.154172 22.9 3.67033 22.9 8ZM18.9 8C18.9 10.1205 17.2077 11.8457 15.1 11.8987V10.0977C16.2134 10.0455 17.1 9.12628 17.1 8C17.1 6.87372 16.2134 5.95453 15.1 5.90234V4.10126C17.2077 4.1543 18.9 5.87952 18.9 8Z" fill="white" stroke="#00A385" stroke-width="0.2"/>
</svg>
