<svg width="14" height="14" viewBox="0 0 14 14" fill="none" xmlns="http://www.w3.org/2000/svg">
<path d="M3.88889 7.72778C3.48695 7.72778 3.16111 7.40194 3.16111 7C3.16111 6.59806 3.48695 6.27222 3.88889 6.27222C4.29083 6.27222 4.61667 6.59806 4.61667 7C4.61667 7.40194 4.29083 7.72778 3.88889 7.72778ZM3.88889 10.8389C3.48695 10.8389 3.16111 10.5131 3.16111 10.1111C3.16111 9.70917 3.48695 9.38333 3.88889 9.38333C4.29083 9.38333 4.61667 9.70917 4.61667 10.1111C4.61667 10.5131 4.29083 10.8389 3.88889 10.8389ZM7 10.8389C6.59806 10.8389 6.27222 10.5131 6.27222 10.1111C6.27222 9.70917 6.59806 9.38333 7 9.38333C7.40194 9.38333 7.72778 9.70917 7.72778 10.1111C7.72778 10.5131 7.40194 10.8389 7 10.8389ZM10.1111 10.8389C9.70917 10.8389 9.38333 10.5131 9.38333 10.1111C9.38333 9.70917 9.70917 9.38333 10.1111 9.38333C10.5131 9.38333 10.8389 9.70917 10.8389 10.1111C10.8389 10.5131 10.5131 10.8389 10.1111 10.8389ZM7 7.72778C6.59806 7.72778 6.27222 7.40194 6.27222 7C6.27222 6.59806 6.59806 6.27222 7 6.27222C7.40194 6.27222 7.72778 6.59806 7.72778 7C7.72778 7.40194 7.40194 7.72778 7 7.72778ZM10.1111 7.72778C9.70917 7.72778 9.38333 7.40194 9.38333 7C9.38333 6.59806 9.70917 6.27222 10.1111 6.27222C10.5131 6.27222 10.8389 6.59806 10.8389 7C10.8389 7.40194 10.5131 7.72778 10.1111 7.72778ZM3.16111 3.88889C3.16111 3.48695 3.48695 3.16111 3.88889 3.16111H10.1111C10.5131 3.16111 10.8389 3.48695 10.8389 3.88889C10.8389 4.29083 10.5131 4.61667 10.1111 4.61667H3.88889C3.48695 4.61667 3.16111 4.29083 3.16111 3.88889ZM0.05 2.33333C0.05 1.07228 1.07228 0.05 2.33333 0.05H11.6667C12.9277 0.05 13.95 1.07228 13.95 2.33333V11.6667C13.95 12.9277 12.9277 13.95 11.6667 13.95H2.33333C1.07228 13.95 0.05 12.9277 0.05 11.6667V2.33333ZM11.6667 1.50556H2.33333C1.87616 1.50556 1.50556 1.87616 1.50556 2.33333V11.6667C1.50556 12.1238 1.87616 12.4944 2.33333 12.4944H11.6667C12.1238 12.4944 12.4944 12.1238 12.4944 11.6667V2.33333C12.4944 1.87616 12.1238 1.50556 11.6667 1.50556Z" fill="#07232E" stroke="#FDFDFD" stroke-width="0.1"/>
</svg>
