<svg width="18" height="18" viewBox="0 0 18 18" fill="none" xmlns="http://www.w3.org/2000/svg">
<path d="M5 9.9C4.50294 9.9 4.1 9.49706 4.1 9C4.1 8.50294 4.50294 8.1 5 8.1C5.49706 8.1 5.9 8.50294 5.9 9C5.9 9.49706 5.49706 9.9 5 9.9ZM5 13.9C4.50294 13.9 4.1 13.4971 4.1 13C4.1 12.5029 4.50294 12.1 5 12.1C5.49706 12.1 5.9 12.5029 5.9 13C5.9 13.4971 5.49706 13.9 5 13.9ZM9 13.9C8.50294 13.9 8.1 13.4971 8.1 13C8.1 12.5029 8.50294 12.1 9 12.1C9.49706 12.1 9.9 12.5029 9.9 13C9.9 13.4971 9.49706 13.9 9 13.9ZM13 13.9C12.5029 13.9 12.1 13.4971 12.1 13C12.1 12.5029 12.5029 12.1 13 12.1C13.4971 12.1 13.9 12.5029 13.9 13C13.9 13.4971 13.4971 13.9 13 13.9ZM9 9.9C8.50294 9.9 8.1 9.49706 8.1 9C8.1 8.50294 8.50294 8.1 9 8.1C9.49706 8.1 9.9 8.50294 9.9 9C9.9 9.49706 9.49706 9.9 9 9.9ZM13 9.9C12.5029 9.9 12.1 9.49706 12.1 9C12.1 8.50294 12.5029 8.1 13 8.1C13.4971 8.1 13.9 8.50294 13.9 9C13.9 9.49706 13.4971 9.9 13 9.9ZM4.1 5C4.1 4.50294 4.50294 4.1 5 4.1H13C13.4971 4.1 13.9 4.50294 13.9 5C13.9 5.49706 13.4971 5.9 13 5.9H5C4.50294 5.9 4.1 5.49706 4.1 5ZM0.1 3C0.1 1.39837 1.39837 0.1 3 0.1H15C16.6016 0.1 17.9 1.39837 17.9 3V15C17.9 16.6016 16.6016 17.9 15 17.9H3C1.39837 17.9 0.1 16.6016 0.1 15V3ZM15 1.9H3C2.39249 1.9 1.9 2.39249 1.9 3V15C1.9 15.6075 2.39249 16.1 3 16.1H15C15.6075 16.1 16.1 15.6075 16.1 15V3C16.1 2.39249 15.6075 1.9 15 1.9Z" fill="white" stroke="#00A385" stroke-width="0.2"/>
</svg>
