<svg width="45" height="45" viewBox="0 0 45 45" fill="none" xmlns="http://www.w3.org/2000/svg">
<rect width="45" height="45" rx="22.5" fill="white" fill-opacity="0.1"/>
<path d="M30.5 15.5C31.0523 15.5 31.5 15.9477 31.5 16.5C31.5 17.0523 31.0523 17.5 30.5 17.5H14.5C13.9477 17.5 13.5 17.0523 13.5 16.5C13.5 15.9477 13.9477 15.5 14.5 15.5H30.5Z" fill="white"/>
<path d="M30.5 19.5C31.0523 19.5 31.5 19.9477 31.5 20.5C31.5 21.0523 31.0523 21.5 30.5 21.5H14.5C13.9477 21.5 13.5 21.0523 13.5 20.5C13.5 19.9477 13.9477 19.5 14.5 19.5H30.5Z" fill="white"/>
<path d="M31.5 24.5C31.5 23.9477 31.0523 23.5 30.5 23.5H14.5C13.9477 23.5 13.5 23.9477 13.5 24.5C13.5 25.0523 13.9477 25.5 14.5 25.5H30.5C31.0523 25.5 31.5 25.0523 31.5 24.5Z" fill="white"/>
<path d="M30.5 27.5C31.0523 27.5 31.5 27.9477 31.5 28.5C31.5 29.0523 31.0523 29.5 30.5 29.5H14.5C13.9477 29.5 13.5 29.0523 13.5 28.5C13.5 27.9477 13.9477 27.5 14.5 27.5H30.5Z" fill="white"/>
</svg>
